<svg width="47" height="47" viewBox="0 0 47 47" fill="none" xmlns="http://www.w3.org/2000/svg">
<path d="M41.125 21.5417V17.625H37.2083V13.7083C37.2052 12.6705 36.7916 11.6761 36.0577 10.9423C35.3239 10.2084 34.3295 9.79477 33.2917 9.79167H29.375V5.875H25.4583V9.79167H21.5417V5.875H17.625V9.79167H13.7083C12.6705 9.79477 11.6761 10.2084 10.9423 10.9423C10.2084 11.6761 9.79477 12.6705 9.79167 13.7083V17.625H5.875V21.5417H9.79167V25.4583H5.875V29.375H9.79167V33.2917C9.79477 34.3295 10.2084 35.3239 10.9423 36.0577C11.6761 36.7916 12.6705 37.2052 13.7083 37.2083H17.625V41.125H21.5417V37.2083H25.4583V41.125H29.375V37.2083H33.2917C34.3295 37.2052 35.3239 36.7916 36.0577 36.0577C36.7916 35.3239 37.2052 34.3295 37.2083 33.2917V29.375H41.125V25.4583H37.2083V21.5417H41.125ZM33.2917 33.2917H13.7083V13.7083H33.2917V33.2917Z" fill="white"/>
<path d="M22.2487 15.6665H19.6147L15.6785 31.3332H17.6897L18.5983 27.6613H23.1338L24.019 31.3332H26.0988L22.2487 15.6665ZM18.8627 26.0927L20.8563 17.5269H20.9464L22.8714 26.0927H18.8627ZM27.8946 15.6665H29.8529V31.3332H27.8946V15.6665Z" fill="white"/>
</svg>
